<svg id="Capa_1" data-name="Capa 1" xmlns="http://www.w3.org/2000/svg" viewBox="0 0 98 76.23"><defs><style>.cls-1{fill:#fff;}</style></defs><title>icon_investors_advantages_2</title><polygon class="cls-1" points="91 33.58 87.5 28 77 28 77 42 91 42 91 33.58"/><polygon class="cls-1" points="5.14 39.87 5.14 39.87 5.14 39.87 5.14 39.87"/><path class="cls-1" d="M95.38,23.13l-5.09,7H59.5V58.52A15.83,15.83,0,0,0,51,70.39H36.91A15.83,15.83,0,0,0,23.24,56.92a16.22,16.22,0,0,0-2-.14A15.83,15.83,0,0,0,5.59,70.39H5.14V50.75L5.25,40.63H0v-7H51.19L56,23.13H95.38Z" transform="translate(0 -10.88)"/><path class="cls-1" d="M80.44,64.8A5.21,5.21,0,0,1,84,63.39H96.25V45L88.81,33.63H63v23.6A15.74,15.74,0,0,1,80.44,64.8ZM77,38.89H87.5L91,44.46v8.42H77v-14Z" transform="translate(0 -10.88)"/><path class="cls-1" d="M21.54,62.62A12.25,12.25,0,1,0,33.79,74.87,12.25,12.25,0,0,0,21.54,62.62Zm0,16.3a4,4,0,1,1,4-4A4,4,0,0,1,21.54,78.91Z" transform="translate(0 -10.88)"/><path class="cls-1" d="M96.25,66.89H84a1.93,1.93,0,0,0-1.75,1.75v3.5A1.77,1.77,0,0,0,84,73.89H96.25A1.75,1.75,0,0,0,98,72.14v-3.5A1.75,1.75,0,0,0,96.25,66.89Z" transform="translate(0 -10.88)"/><path class="cls-1" d="M78.75,71.24a12.26,12.26,0,1,0,.54,3.63c0-.17,0-0.32,0-0.49A12.25,12.25,0,0,0,78.75,71.24ZM67,78.91a4,4,0,1,1,4-4A4,4,0,0,1,67,78.91Z" transform="translate(0 -10.88)"/><polygon class="cls-1" points="51.92 11.41 50.09 7 44.84 7 40.25 0 33.47 0 26.25 8.75 20.71 8.75 15.75 14 11.96 14 6.13 19.25 48.13 19.25 51.92 11.41"/></svg>