<svg id="Layer_1" data-name="Layer 1" xmlns="http://www.w3.org/2000/svg" viewBox="0 0 512 402.74"><defs><style>.cls-1{fill:#fff;}</style></defs><title>icon_partners_advantages_4</title><polygon class="cls-1" points="380.54 113.87 380.54 185.7 478.86 185.7 431.37 113.87 380.54 113.87"/><path class="cls-1" d="M35.37,252L103,54.63a214.54,214.54,0,0,0-29.42,3.44A16.24,16.24,0,0,0,61.29,68.76L11.08,215.21a16.26,16.26,0,0,0,3.17,16A215,215,0,0,0,35.37,252Z" transform="translate(0 -54.63)"/><path class="cls-1" d="M509.39,243l-58.26-89.86a16.21,16.21,0,0,0-13.61-7.4H411.44v-0.37h-72v20h0v154H245.79q9.26-.93,18-2.59a16.23,16.23,0,0,0,12.32-10.68l50.21-146.46a16.26,16.26,0,0,0-3.17-16,219.62,219.62,0,0,0-24.8-23.87l-68.43,199.6H105.18V295.14q11.37,4.95,23.47,9.12A301.48,301.48,0,0,0,194.74,319L270,99.45a307.52,307.52,0,0,0-131.94-44.1L63.49,272.92q4.08,2.63,8.3,5.14v41.29H0v70a71.72,71.72,0,0,1,120.58-16.19,71.74,71.74,0,0,1,123.27,23H375.74a71.76,71.76,0,0,1,133.35-7,16.14,16.14,0,0,0,2.91-9.26V251.8A16.25,16.25,0,0,0,509.39,243Zm-128.85-2.65V168.5h50.83l47.49,71.83H380.54Z" transform="translate(0 -54.63)"/><circle class="cls-1" cx="443.79" cy="364.34" r="38.4"/><circle class="cls-1" cx="65.36" cy="364.34" r="38.4"/><circle class="cls-1" cx="175.79" cy="364.34" r="38.4"/></svg>