<svg id="Слой_1" data-name="Слой 1" xmlns="http://www.w3.org/2000/svg" xmlns:xlink="http://www.w3.org/1999/xlink" viewBox="0 0 299.92 84.51"><defs><style>.cls-1{fill:none;}.cls-2{fill:#2ca447;}.cls-3{fill:#348b3f;}.cls-4{clip-path:url(#clip-path);}.cls-5{fill:#2c2828;}</style><clipPath id="clip-path" transform="translate(-393.88 -19.18)"><polygon id="_Обтравочный_контур_" data-name="&lt;Обтравочный контур&gt;" class="cls-1" points="646.73 74 631.59 54.52 622.05 54.52 622.05 91.38 632.15 91.38 632.15 71.17 647.9 91.38 656.83 91.38 656.83 54.52 646.73 54.52 646.73 74"/></clipPath></defs><title>Векторный смарт-объект</title><path id="_Составной_контур_" data-name="&lt;Составной контур&gt;" class="cls-2" d="M460.83,48.86H433L419,73,433,97.11h27.86L474.75,73ZM446.9,92.56A19.57,19.57,0,1,1,466.47,73,19.57,19.57,0,0,1,446.9,92.56Z" transform="translate(-393.88 -19.18)"/><path id="_Составной_контур_2" data-name="&lt;Составной контур&gt;" class="cls-2" d="M446.9,56.09A16.89,16.89,0,1,0,463.79,73,16.89,16.89,0,0,0,446.9,56.09Zm0,29.13A12.24,12.24,0,1,1,459.14,73,12.24,12.24,0,0,1,446.9,85.22Z" transform="translate(-393.88 -19.18)"/><polygon id="_Контур_" data-name="&lt;Контур&gt;" class="cls-3" points="252.84 54.82 237.7 35.34 228.17 35.34 228.17 72.2 238.27 72.2 238.27 51.99 254.03 72.2 262.95 72.2 262.95 35.34 252.84 35.34 252.84 54.82"/><polygon id="_Контур_2" data-name="&lt;Контур&gt;" class="cls-1" points="252.62 54.82 237.47 35.34 227.94 35.34 227.94 72.2 238.04 72.2 238.04 51.99 253.79 72.2 262.72 72.2 262.72 35.34 252.62 35.34 252.62 54.82"/><g id="_Группа_обтравки_" data-name="&lt;Группа обтравки&gt;"><g class="cls-4"><rect id="_Прямоугольник_" data-name="&lt;Прямоугольник&gt;" class="cls-2" x="630.49" y="24.93" width="43.8" height="73.01" transform="translate(-293.74 394.97) rotate(-37.95)"/></g></g><path id="_Составной_контур_3" data-name="&lt;Составной контур&gt;" class="cls-5" d="M513.61,91.38V54.52h29.64V63.2H523.71v5H541.4V76.3H523.71v6.39h19.79v8.69h-29.9Z" transform="translate(-393.88 -19.18)"/><path id="_Составной_контур_4" data-name="&lt;Составной контур&gt;" class="cls-2" d="M548.77,91.38V54.52h17.39q8,0,12,4a11.93,11.93,0,0,1,3.26,8.79,11.62,11.62,0,0,1-2,6.87,12.57,12.57,0,0,1-5.54,4.33l8.79,12.89H570.87l-7.43-11.21H559V91.38h-10.2ZM559,72.23h6.73a6.21,6.21,0,0,0,4-1.18,4,4,0,0,0,1.44-3.26,3.78,3.78,0,0,0-1.45-3.2,6.61,6.61,0,0,0-4.07-1.1H559v8.74Z" transform="translate(-393.88 -19.18)"/><path id="_Составной_контур_5" data-name="&lt;Составной контур&gt;" class="cls-2" d="M661.46,63.49v-9H693.8v9H682.72V91.38h-10.2V63.49H661.46Z" transform="translate(-393.88 -19.18)"/><polygon id="_Контур_3" data-name="&lt;Контур&gt;" class="cls-5" points="21.23 50 10.21 50 10.21 44.31 24.47 44.31 29.48 35.49 29.48 35.34 0 35.34 0 72.2 10.21 72.2 10.21 58.48 16.28 58.48 21.23 50"/><polygon id="_Контур_4" data-name="&lt;Контур&gt;" class="cls-2" points="203.46 57.12 210.71 57.12 210.67 57.06 215.22 49.05 203.46 49.05 203.46 44.02 218.08 44.02 222.99 35.38 222.99 35.34 193.36 35.34 193.36 72.2 223.25 72.2 223.25 63.51 203.46 63.51 203.46 57.12"/><path id="_Составной_контур_6" data-name="&lt;Составной контур&gt;" class="cls-5" d="M508.63,65.46a16.56,16.56,0,0,0-4-5.81,18.16,18.16,0,0,0-6.55-3.79,26.9,26.9,0,0,0-8.78-1.35h-14.2v8l6,10.43-6,10.43v8h14a26.61,26.61,0,0,0,8.86-1.4,18.53,18.53,0,0,0,6.63-3.87,16.91,16.91,0,0,0,4.07-5.86A18.78,18.78,0,0,0,510,72.88,19,19,0,0,0,508.63,65.46Zm-11.8,14.45a10.61,10.61,0,0,1-7.4,2.49h-4.16V63.49h4.16A10.52,10.52,0,0,1,496.82,66a8.91,8.91,0,0,1,2.76,6.92A8.94,8.94,0,0,1,496.83,79.92Z" transform="translate(-393.88 -19.18)"/></svg>