<svg id="Режим_изоляции" data-name="Режим изоляции" xmlns="http://www.w3.org/2000/svg" xmlns:xlink="http://www.w3.org/1999/xlink" viewBox="0 0 300.13 84.51"><defs><style>.cls-1{fill:none;}.cls-2{fill:#2ca447;}.cls-3{fill:#348b3f;}.cls-4{clip-path:url(#clip-path);}.cls-5{fill:#fff;}</style><clipPath id="clip-path" transform="translate(-412.99 -429.38)"><polygon id="_Обтравочный_контур_" data-name="&lt;Обтравочный контур&gt;" class="cls-1" points="666.05 484.2 650.91 464.71 641.37 464.71 641.37 501.57 651.47 501.57 651.47 481.37 667.23 501.57 676.15 501.57 676.15 464.71 666.05 464.71 666.05 484.2"/></clipPath></defs><title>logo_foderent_footer</title><g id="_Группа_" data-name="&lt;Группа&gt;"><path id="_Составной_контур_" data-name="&lt;Составной контур&gt;" class="cls-2" d="M479.94,459.06H452.08l-13.93,24.12,13.93,24.12h27.86l13.93-24.12ZM466,502.75a19.57,19.57,0,1,1,19.57-19.57A19.57,19.57,0,0,1,466,502.75Z" transform="translate(-412.99 -429.38)"/><path id="_Составной_контур_2" data-name="&lt;Составной контур&gt;" class="cls-2" d="M466,466.29a16.89,16.89,0,1,0,16.89,16.89A16.89,16.89,0,0,0,466,466.29Zm0,29.13a12.24,12.24,0,1,1,12.24-12.24A12.24,12.24,0,0,1,466,495.42Z" transform="translate(-412.99 -429.38)"/><polygon id="_Контур_" data-name="&lt;Контур&gt;" class="cls-3" points="253.05 54.82 237.91 35.34 228.38 35.34 228.38 72.2 238.48 72.2 238.48 51.99 254.23 72.2 263.15 72.2 263.15 35.34 253.05 35.34 253.05 54.82"/><polygon id="_Контур_2" data-name="&lt;Контур&gt;" class="cls-1" points="253.05 54.82 237.91 35.34 228.38 35.34 228.38 72.2 238.48 72.2 238.48 51.99 254.23 72.2 263.15 72.2 263.15 35.34 253.05 35.34 253.05 54.82"/><g id="_Группа_обтравки_" data-name="&lt;Группа обтравки&gt;"><g class="cls-4"><rect id="_Прямоугольник_" data-name="&lt;Прямоугольник&gt;" class="cls-2" x="649.81" y="435.12" width="43.8" height="73.01" transform="translate(-561 83.37) rotate(-37.95)"/></g></g><path id="_Составной_контур_3" data-name="&lt;Составной контур&gt;" class="cls-5" d="M533.35,501.57V464.71H563v8.69H543.45v5h17.69v8.07H543.45v6.39h19.79v8.69h-29.9Z" transform="translate(-412.99 -429.38)"/><path id="_Составной_контур_4" data-name="&lt;Составной контур&gt;" class="cls-2" d="M568.32,501.57V464.71H585.7q8,0,12,4a11.93,11.93,0,0,1,3.26,8.79,11.62,11.62,0,0,1-2,6.87,12.57,12.57,0,0,1-5.54,4.33l8.79,12.89H590.42L583,490.37h-4.47v11.21h-10.2Zm10.2-19.15h6.73a6.21,6.21,0,0,0,4-1.18,4,4,0,0,0,1.44-3.26,3.78,3.78,0,0,0-1.45-3.2,6.61,6.61,0,0,0-4.07-1.1h-6.68v8.74Z" transform="translate(-412.99 -429.38)"/><path id="_Составной_контур_5" data-name="&lt;Составной контур&gt;" class="cls-2" d="M680.78,473.68v-9h32.34v9H702v27.89h-10.2V473.68H680.78Z" transform="translate(-412.99 -429.38)"/><polygon id="_Контур_3" data-name="&lt;Контур&gt;" class="cls-5" points="21.23 50 10.21 50 10.21 44.31 24.47 44.31 29.48 35.49 29.48 35.34 0 35.34 0 72.2 10.21 72.2 10.21 58.48 16.28 58.48 21.23 50"/><polygon id="_Контур_4" data-name="&lt;Контур&gt;" class="cls-2" points="203.9 57.12 211.14 57.12 211.11 57.06 215.66 49.05 203.9 49.05 203.9 44.02 218.52 44.02 223.43 35.38 223.43 35.34 193.79 35.34 193.79 72.2 223.69 72.2 223.69 63.51 203.9 63.51 203.9 57.12"/><path id="_Составной_контур_6" data-name="&lt;Составной контур&gt;" class="cls-5" d="M527.75,475.66a16.56,16.56,0,0,0-4-5.81,18.16,18.16,0,0,0-6.55-3.79,26.9,26.9,0,0,0-8.78-1.35h-14.2v8l6,10.43-6,10.43v8h14a26.61,26.61,0,0,0,8.86-1.4,18.53,18.53,0,0,0,6.63-3.87,16.91,16.91,0,0,0,4.07-5.86,18.78,18.78,0,0,0,1.43-7.36A19,19,0,0,0,527.75,475.66Zm-11.8,14.45a10.61,10.61,0,0,1-7.4,2.49h-4.16V473.68h4.16a10.52,10.52,0,0,1,7.39,2.53A10.14,10.14,0,0,1,515.95,490.11Z" transform="translate(-412.99 -429.38)"/></g></svg>