<svg xmlns="http://www.w3.org/2000/svg" viewBox="0 0 30 37.6"><defs><style>.cls-1{fill:#2ca346;}</style></defs><title>map-pin</title><g id="Слой_2" data-name="Слой 2"><g id="Слой_1-2" data-name="Слой 1"><path class="cls-1" d="M14.47,0A15,15,0,0,0,.27,17.85s0,.16.1.47a15,15,0,0,0,1,3c1.5,3.56,5,9.52,12.78,16a1.3,1.3,0,0,0,1.67,0c7.8-6.48,11.28-12.44,12.79-16a14.39,14.39,0,0,0,1-3c.07-.3.1-.47.1-.47A15,15,0,0,0,14.47,0ZM15,22.46a7.29,7.29,0,1,1,7.29-7.29A7.28,7.28,0,0,1,15,22.46Zm0,0"/></g></g></svg>